<?xml version="1.0" standalone="no"?>
<!DOCTYPE svg PUBLIC "-//W3C//DTD SVG 20010904//EN"
 "http://www.w3.org/TR/2001/REC-SVG-20010904/DTD/svg10.dtd">
<svg version="1.0" xmlns="http://www.w3.org/2000/svg"
 width="300.000000pt" height="300.000000pt" viewBox="0 0 300.000000 300.000000"
 preserveAspectRatio="xMidYMid meet">
<metadata>
Created by potrace 1.10, written by Peter Selinger 2001-2011
</metadata>
<g transform="translate(0.000000,300.000000) scale(0.100000,-0.100000)"
fill="#000000" stroke="none">
<path d="M260 2388 c-1 -8 -2 -122 0 -135 0 -5 4 -3 8 4 4 7 46 12 111 14
l103 3 -1 -230 c-1 -135 -6 -230 -11 -232 -6 -2 -10 -8 -10 -13 0 -5 36 -9 80
-9 44 0 80 4 80 9 0 5 -4 11 -9 13 -6 2 -11 100 -12 232 l-2 230 104 -3 c65
-2 107 -7 111 -14 9 -14 9 -14 10 63 0 34 -2 64 -6 67 -3 4 -6 1 -6 -5 0 -18
-536 -17 -543 1 -3 6 -6 9 -7 5z m315 -104 c-25 -36 -25 -41 -25 -235 0 -118
-4 -199 -9 -199 -6 0 -11 87 -13 209 -3 206 -3 210 -27 235 l-24 26 61 0 61 0
-24 -36z"/>
<path d="M1440 2380 c0 -6 -97 -10 -270 -10 -243 0 -302 -5 -255 -24 23 -8 23
-524 0 -532 -47 -19 11 -24 253 -24 195 0 271 -3 280 -12 9 -9 12 4 12 61 0
59 -3 71 -13 63 -8 -7 -85 -12 -211 -12 l-199 -2 -1 76 -1 76 131 0 c88 0 134
-4 142 -12 9 -9 12 5 12 62 -1 56 -3 71 -11 58 -9 -16 -27 -18 -142 -18 l-132
0 1 71 1 71 199 -1 c141 -2 201 -6 206 -14 4 -7 8 21 8 61 0 39 -2 72 -5 72
-3 0 -5 -4 -5 -10z m-418 -83 c-18 -19 -22 -35 -22 -93 0 -62 3 -73 25 -94
l25 -23 -25 -25 c-22 -22 -25 -33 -25 -97 0 -58 4 -78 21 -99 l20 -26 -35 0
-36 0 0 240 0 240 37 0 36 0 -21 -23z"/>
<path d="M2181 2320 c0 -41 3 -70 7 -63 4 7 46 12 112 14 l105 3 3 -227 c2
-196 0 -228 -13 -233 -36 -14 -9 -24 65 -24 44 0 80 4 80 9 0 5 -4 11 -10 13
-6 2 -10 94 -10 232 l-1 230 103 -3 c57 -1 105 -7 106 -12 10 -27 17 -1 17 61
0 39 -3 70 -7 70 -5 0 -8 -4 -8 -10 0 -16 -537 -13 -543 3 -3 6 -6 -22 -6 -63z
m320 -26 c-20 -25 -21 -40 -21 -228 0 -182 -9 -259 -24 -216 -3 8 -7 106 -8
217 -3 198 -3 202 -27 227 l-24 26 62 0 62 0 -20 -26z"/>
<path d="M1725 2363 c-71 -15 -137 -58 -160 -103 -8 -16 -15 -52 -15 -81 0
-44 4 -55 33 -84 42 -42 82 -52 232 -61 66 -4 135 -13 153 -20 30 -12 33 -17
30 -51 -4 -53 -46 -75 -150 -81 -130 -8 -238 28 -238 79 0 35 -15 19 -47 -52
-19 -40 -27 -69 -20 -67 7 1 39 -9 72 -22 53 -22 75 -24 200 -25 134 0 143 1
197 28 72 35 100 74 105 141 6 71 -18 114 -80 145 -42 21 -69 25 -190 31 -164
7 -190 16 -185 63 2 27 11 36 48 55 39 21 56 23 135 20 98 -5 185 -34 185 -62
0 -32 21 -14 50 44 29 56 29 60 10 60 -11 0 -53 11 -94 25 -59 20 -93 25 -163
24 -48 -1 -97 -3 -108 -6z m-74 -98 c-36 -41 -39 -75 -11 -115 27 -39 63 -47
211 -53 142 -5 190 -21 214 -68 30 -56 9 -126 -45 -154 -43 -22 -45 -19 -11
20 41 47 41 85 -1 130 -38 41 -94 55 -217 55 -100 1 -151 13 -178 45 -48 55
-8 161 66 174 1 1 -11 -15 -28 -34z"/>
<path d="M2301 1994 c-25 -32 -58 -118 -78 -204 -8 -36 -16 -70 -18 -76 -2 -6
-42 -13 -97 -17 -115 -7 -232 -37 -318 -80 -70 -35 -92 -59 -72 -79 10 -10 18
-5 40 20 19 24 48 40 101 58 145 48 340 69 333 35 -14 -66 -22 -363 -12 -471
11 -118 31 -246 44 -280 10 -26 -186 -79 -529 -144 -334 -64 -408 -79 -540
-113 -288 -73 -470 -156 -564 -257 -41 -44 -16 -40 41 6 149 121 406 205 928
303 294 55 384 74 540 116 157 41 158 43 130 207 -11 63 -21 158 -22 211 -1
87 3 110 46 256 26 88 52 167 56 176 7 13 33 17 127 22 65 4 138 11 163 17 59
13 138 49 144 66 8 21 -11 26 -37 10 -13 -9 -45 -22 -72 -31 -54 -16 -292 -41
-302 -32 -3 3 4 53 16 111 30 148 27 196 -9 196 -10 0 -28 -12 -39 -26z m44
-58 c-4 -22 -16 -81 -27 -129 -17 -74 -24 -90 -44 -99 -39 -18 -44 0 -23 82
38 148 112 264 94 146z m-68 -280 c-3 -8 -18 -60 -34 -115 -25 -93 -43 -127
-43 -83 0 34 21 195 26 203 3 5 17 9 31 9 18 0 24 -4 20 -14z"/>
<path d="M444 1658 c-89 -60 -176 -220 -221 -403 -25 -103 -25 -444 0 -534 58
-212 139 -280 226 -191 34 35 146 246 234 440 l16 35 0 -52 c1 -55 18 -83 51
-83 30 0 52 53 84 211 5 22 13 27 45 32 22 3 53 12 69 20 l29 14 5 -116 c8
-176 54 -260 70 -125 4 32 12 103 18 158 13 122 25 150 35 81 15 -108 38 -155
76 -155 21 0 71 58 99 115 l20 40 0 -73 c0 -92 18 -138 62 -156 28 -12 38 -12
68 0 53 21 125 107 175 208 34 70 45 85 45 63 0 -71 66 -129 121 -107 42 18
92 78 128 153 26 54 45 77 107 127 42 34 78 59 81 57 2 -3 -11 -38 -30 -79
-57 -121 -81 -211 -81 -313 -1 -137 40 -198 110 -166 32 14 67 72 53 86 -7 7
-13 4 -20 -8 -6 -9 -21 -29 -34 -45 -32 -36 -55 -22 -73 44 -27 101 9 266 95
437 42 85 46 107 19 107 -15 0 -88 -52 -133 -94 -18 -16 -35 -28 -37 -25 -2 2
8 39 22 81 27 77 26 105 -5 115 -39 13 -136 -153 -137 -235 -1 -43 1 -47 27
-52 l27 -5 -40 -62 c-40 -60 -91 -103 -123 -103 -29 0 -50 47 -50 111 0 69 6
79 33 54 19 -17 21 -17 40 0 49 45 47 135 -4 135 -34 0 -54 -29 -139 -200 -74
-148 -109 -198 -171 -248 -68 -53 -107 -11 -107 116 0 123 46 244 111 289 12
9 25 11 30 7 10 -11 1 -64 -11 -64 -5 0 -9 -4 -9 -10 0 -18 29 -11 40 9 16 30
12 66 -9 85 -18 16 -22 16 -50 2 -39 -20 -68 -60 -121 -166 -46 -91 -102 -181
-125 -200 -24 -20 -43 42 -55 171 -9 101 -20 142 -35 128 -12 -13 -47 -173
-57 -266 -7 -57 -16 -103 -21 -103 -10 0 -3 281 9 339 5 26 4 33 -7 29 -8 -3
-20 -34 -28 -76 l-13 -71 -55 -21 c-71 -26 -79 -25 -92 10 -14 40 -45 39 -83
-2 -16 -18 -62 -105 -102 -193 -134 -294 -216 -437 -257 -450 -41 -13 -98 73
-136 205 -15 54 -18 100 -17 265 1 185 3 207 27 298 34 125 88 232 149 301 44
49 101 86 114 73 10 -9 -6 -45 -33 -77 -26 -32 -26 -47 2 -37 22 9 55 68 55
99 0 25 -23 48 -48 48 -5 0 -31 -15 -58 -32z m1495 -247 c-30 -78 -63 -126
-80 -116 -18 11 31 130 80 195 38 51 38 20 0 -79z m-179 -56 c0 -25 -23 -65
-37 -65 -22 0 -27 28 -9 55 18 27 46 34 46 10z m-960 -230 c10 -12 9 -29 -3
-84 -19 -83 -42 -141 -56 -141 -29 0 -25 105 6 193 18 49 32 58 53 32z"/>
<path d="M2369 1460 c-30 -17 -62 -110 -67 -191 -4 -69 -2 -79 17 -98 12 -12
29 -21 38 -19 24 5 52 67 71 156 l16 80 40 7 c22 3 60 15 85 26 34 15 42 22
33 31 -9 9 -22 7 -54 -9 -75 -36 -95 -37 -110 -6 -14 30 -43 39 -69 23z m25
-46 c22 -9 20 -58 -5 -140 -22 -71 -34 -94 -51 -94 -16 0 -4 159 15 203 17 40
17 40 41 31z"/>
<path d="M2497 1224 c-3 -4 -4 -26 0 -50 3 -23 3 -58 -1 -78 -10 -54 -81 -125
-165 -165 -70 -35 -92 -61 -48 -61 34 0 140 54 185 95 52 46 84 113 85 173 1
67 -29 113 -56 86z"/>
<path d="M2590 1125 c0 -70 -17 -112 -65 -158 -48 -47 -32 -48 22 -2 23 19 49
56 62 85 26 61 25 123 -1 128 -15 3 -18 -5 -18 -53z"/>
<path d="M2240 848 c0 -7 11 -37 25 -65 20 -43 29 -53 49 -53 29 0 40 14 31
38 -6 16 -8 15 -20 -2 -14 -18 -16 -17 -35 25 -11 24 -20 50 -20 57 0 6 -7 12
-15 12 -8 0 -15 -6 -15 -12z"/>
<path d="M910 636 c-41 -12 -100 -35 -130 -51 -69 -35 -173 -105 -167 -112 3
-3 38 15 79 39 69 42 220 107 281 122 15 3 27 11 27 16 0 13 -2 13 -90 -14z"/>
</g>
</svg>
