<?xml version="1.0" standalone="no"?>
<!DOCTYPE svg PUBLIC "-//W3C//DTD SVG 20010904//EN"
 "http://www.w3.org/TR/2001/REC-SVG-20010904/DTD/svg10.dtd">
<svg version="1.0" xmlns="http://www.w3.org/2000/svg"
 width="300.000000pt" height="300.000000pt" viewBox="0 0 300.000000 300.000000"
 preserveAspectRatio="xMidYMid meet">
<metadata>
Created by potrace 1.10, written by Peter Selinger 2001-2011
</metadata>
<g transform="translate(0.000000,300.000000) scale(0.100000,-0.100000)"
fill="#000000" stroke="none">
<path d="M1390 2655 c-8 -2 -49 -9 -90 -15 -322 -53 -625 -267 -798 -566 -39
-67 -112 -234 -112 -256 0 -5 15 10 33 34 18 24 55 55 82 70 48 27 81 36 72
21 -3 -5 15 -6 39 -4 25 1 61 0 82 -4 31 -6 34 -9 17 -15 -15 -7 -16 -9 -4 -9
9 -1 33 -12 53 -26 20 -14 40 -25 43 -25 12 0 -30 40 -48 45 -10 4 -18 9 -17
13 1 4 -8 27 -20 52 -24 52 -41 157 -24 146 7 -4 14 7 18 31 9 51 28 86 71
134 40 44 135 98 141 81 2 -7 21 -9 51 -5 78 9 151 -18 200 -74 157 -178 42
-444 -194 -447 -49 -1 -80 4 -104 17 -41 21 -55 15 -14 -7 15 -8 21 -15 13
-16 -9 0 -27 7 -40 17 -20 13 -19 10 7 -18 28 -29 59 -110 47 -122 -2 -2 6
-12 18 -23 13 -10 17 -12 11 -4 -17 19 -16 30 1 30 29 0 28 -22 -3 -54 -37
-38 -42 -60 -6 -26 l25 23 0 -24 c0 -13 3 -34 6 -46 l6 -22 18 22 c14 16 22
19 30 11 9 -9 3 -25 -23 -66 -19 -29 -41 -59 -49 -65 -13 -11 -15 -46 -10
-156 3 -48 32 -62 98 -46 33 9 56 24 88 60 31 35 52 49 70 49 33 0 34 16 1 23
-20 3 -37 -5 -73 -38 -57 -50 -82 -65 -116 -65 -31 0 -44 22 -44 80 -1 42 25
104 63 150 7 8 15 27 19 42 5 23 1 31 -24 50 -22 16 -30 30 -30 53 0 21 -10
43 -30 65 -32 36 -33 40 -24 64 5 12 21 16 66 16 74 0 120 13 173 49 47 31
100 107 115 162 6 21 13 39 16 39 2 0 22 -12 44 -27 32 -20 58 -28 121 -33
104 -9 164 2 251 47 4 2 13 -16 19 -39 26 -87 91 -163 169 -196 56 -24 180
-153 209 -216 11 -25 31 -61 45 -79 14 -19 28 -47 30 -63 2 -16 7 -50 11 -76
6 -39 3 -53 -15 -87 -13 -21 -31 -42 -41 -44 -31 -8 -98 17 -116 43 -30 43
-56 60 -90 58 -25 -2 -40 5 -66 30 -39 38 -47 40 -46 10 0 -13 3 -17 6 -10 6
16 19 16 26 0 3 -9 -8 -13 -34 -14 -31 0 -39 3 -39 17 0 15 -4 17 -23 10 -30
-12 -57 4 -57 33 0 37 25 52 63 38 29 -10 30 -10 13 3 -11 8 -27 15 -36 15
-26 0 -29 9 -15 43 7 18 16 70 19 117 7 82 6 86 -22 131 -22 34 -45 54 -84 73
-50 24 -58 26 -106 16 -62 -14 -108 -44 -140 -90 -22 -32 -23 -42 -18 -125 3
-49 10 -105 16 -124 12 -43 8 -49 -28 -43 -33 4 -74 -30 -65 -55 4 -11 8 -9
17 8 26 51 76 51 76 0 0 -33 -31 -51 -55 -31 -10 8 -16 7 -23 -6 -8 -14 1 -24
52 -59 33 -22 88 -53 122 -67 l61 -26 69 29 c38 16 80 39 94 50 l25 21 -25 -5
c-14 -2 -42 -12 -62 -21 -21 -9 -38 -15 -38 -13 0 2 11 16 25 31 14 15 25 34
25 42 0 19 7 18 37 -6 19 -15 41 -20 84 -20 32 0 70 -5 86 -11 15 -6 43 -12
61 -14 35 -3 62 -20 62 -39 0 -29 55 -64 110 -70 68 -8 85 2 115 74 20 48 21
58 10 99 -7 29 -9 56 -3 70 6 18 3 27 -17 42 -13 11 -37 46 -53 79 -18 39 -59
91 -120 154 -51 53 -97 96 -103 96 -19 0 -87 50 -117 86 -17 21 -38 58 -47 83
-16 48 -20 116 -6 107 5 -3 11 8 15 25 10 53 7 56 -19 13 -25 -42 -77 -84
-130 -105 -47 -18 -154 -16 -194 4 -45 22 -52 21 -21 -3 40 -31 8 -23 -43 11
-57 37 -82 72 -108 144 -20 59 -26 120 -9 110 6 -3 10 4 10 18 0 36 57 143 93
173 39 33 120 70 124 57 2 -5 27 -8 57 -5 103 8 191 -42 241 -138 20 -39 30
-147 17 -180 l-11 -25 -1 30 -2 30 -8 -30 c-4 -16 -11 -39 -14 -50 -5 -13 -2
-12 8 5 9 16 15 19 16 10 0 -8 14 8 30 37 31 54 68 86 135 116 26 12 41 14 43
7 2 -6 17 -8 39 -4 19 4 62 1 96 -7 51 -10 69 -20 103 -55 55 -57 74 -101 80
-182 5 -60 3 -73 -23 -122 -15 -30 -34 -55 -40 -55 -7 0 -12 -4 -10 -10 2 -12
16 -8 37 10 30 25 84 48 88 36 2 -7 17 -9 42 -5 47 8 135 -12 173 -38 16 -11
26 -22 23 -25 -2 -3 -17 4 -33 16 -15 11 -41 23 -58 26 -27 6 -26 4 10 -14 22
-12 55 -30 73 -41 18 -11 30 -15 25 -8 -4 7 -8 19 -9 26 -6 35 -100 208 -152
278 -172 231 -415 388 -697 450 -64 14 -319 28 -355 19z m345 -49 c268 -57
505 -207 666 -420 103 -137 143 -224 91 -198 -9 5 -42 10 -73 11 -98 4 -91 -3
-93 97 -2 95 -13 126 -68 197 -50 63 -139 97 -253 97 -59 0 -79 -5 -124 -30
-30 -17 -55 -29 -56 -28 -1 2 -10 27 -19 55 -12 35 -34 70 -64 102 -60 63
-155 95 -261 89 -117 -6 -207 -81 -245 -201 -10 -31 -22 -59 -26 -62 -5 -3
-33 8 -62 24 -29 16 -75 34 -103 40 -62 13 -163 8 -195 -10 -38 -22 -111 -91
-125 -119 -35 -68 -56 -154 -53 -219 l3 -66 -70 -1 c-38 0 -82 -6 -97 -12 -25
-10 -28 -9 -28 7 0 17 47 119 60 131 3 3 15 19 25 36 50 79 148 182 265 277
116 95 309 178 490 211 99 18 312 14 415 -8z m-107 -792 l44 -26 -55 -56 -56
-56 -59 55 c-33 29 -59 58 -58 63 3 12 85 45 115 45 13 1 44 -11 69 -25z
m-150 -221 c-40 -40 -68 -73 -63 -73 5 0 40 30 77 67 l67 67 64 -64 64 -63
-19 -38 c-10 -21 -18 -51 -18 -67 0 -29 -25 -58 -86 -100 l-30 -21 -45 36
c-48 38 -63 57 -66 88 -1 11 -7 43 -13 70 -6 28 -13 90 -16 139 -4 70 -2 95
11 123 l17 35 64 -63 64 -63 -72 -73z m220 153 c10 -22 8 -193 -2 -203 -2 -2
-31 24 -65 58 l-61 63 48 52 c26 28 52 52 58 53 6 1 16 -10 22 -23z m-278
-363 c1 -23 23 -53 40 -53 10 0 10 -3 0 -15 -8 -10 -16 -12 -19 -6 -4 6 -26
19 -49 29 l-43 19 28 21 c34 26 43 27 43 5z"/>
<path fill="#a34422" d="M1635 2505 c27 -13 51 -22 53 -20 7 7 -62 45 -82 45 -11 0 2 -11 29
-25z"/>
<path fill="#104422" d="M1380 2290 l0 -140 130 0 130 0 0 123 c-1 120 -1 122 -19 100 -10
-12 -31 -37 -46 -54 l-26 -32 -27 26 c-20 20 -24 29 -15 38 9 9 16 9 28 -1 17
-14 16 -15 66 53 l20 27 -120 0 -121 0 0 -140z m114 82 c-11 -10 -19 -23 -16
-30 2 -8 -8 -12 -32 -12 -33 0 -36 2 -36 30 0 30 1 30 53 30 51 -1 51 -1 31
-18z m-4 -87 c-3 -5 -17 -9 -32 -7 -16 2 -28 -2 -28 -7 0 -6 6 -11 14 -11 25
0 58 -34 51 -53 -9 -23 -48 -32 -74 -17 -29 15 -19 28 19 22 18 -2 30 0 30 7
0 6 -9 11 -19 11 -31 0 -53 28 -40 51 8 16 19 19 47 17 21 -2 35 -7 32 -13z
m101 -42 c8 -21 5 -23 -27 -23 -23 0 -33 -4 -28 -11 3 -6 15 -9 25 -6 10 3 21
1 24 -4 9 -14 -44 -22 -60 -9 -15 13 -21 61 -8 74 16 15 66 1 74 -21z"/>
<path d="M1069 2329 c14 -5 41 -20 60 -31 31 -19 34 -20 21 -4 -16 20 -70 46
-92 45 -7 0 -2 -5 11 -10z"/>
<path d="M2123 2326 c21 -8 47 -22 58 -32 10 -9 19 -12 19 -7 0 16 -46 43 -83
49 -31 5 -31 4 6 -10z"/>
<path fill="#004402" d="M1932 2244 c-59 -30 -89 -100 -72 -165 12 -44 63 -99 91 -99 14 0 19
-7 19 -25 0 -32 17 -32 64 0 35 24 51 15 24 -14 -11 -10 -9 -12 7 -9 14 2 21
12 23 35 4 41 24 58 51 43 27 -14 27 -34 1 -27 -26 7 -36 -10 -12 -18 49 -15
73 36 27 57 -33 15 -32 32 0 25 16 -3 24 0 22 7 -2 6 -12 12 -23 14 -16 2 -19
9 -16 41 10 107 -109 184 -206 135z m56 -62 c3 -19 -1 -23 -15 -20 -10 2 -19
14 -21 26 -3 19 1 23 15 20 10 -2 19 -14 21 -26z m56 19 c9 -14 -4 -41 -20
-41 -8 0 -14 10 -14 25 0 25 23 35 34 16z m-103 -41 c26 -15 24 -30 -5 -30
-27 0 -41 14 -31 30 8 13 12 12 36 0z m159 -32 c0 -17 -3 -18 -15 -8 -8 7 -15
21 -15 32 0 17 3 18 15 8 8 -7 15 -21 15 -32z m-30 -23 c0 -7 8 -19 18 -24 15
-9 15 -10 -5 -11 -29 0 -60 30 -41 41 19 13 28 11 28 -6z m-112 -7 c-8 -22
-36 -34 -50 -20 -10 10 -10 15 2 22 21 14 52 12 48 -2z m32 -38 c0 -11 -7 -23
-15 -27 -21 -8 -28 1 -20 26 8 27 35 27 35 1z m54 -3 c12 -19 3 -32 -19 -24
-17 7 -21 51 -3 45 6 -2 16 -12 22 -21z m26 -39 c0 -17 -3 -29 -6 -25 -3 3
-17 1 -31 -4 -14 -5 -30 -6 -36 -2 -7 5 0 10 18 13 18 3 34 14 40 28 13 29 15
28 15 -10z"/>
<path fill="#a34422" d="M875 2208 c-20 -18 -40 -48 -45 -66 -12 -43 19 -81 70 -84 34 -3 35
-2 38 40 2 23 8 42 14 42 22 0 81 -54 95 -87 12 -31 12 -38 -2 -59 -24 -37 7
-32 39 7 32 38 40 68 33 122 -4 33 -14 50 -48 80 -38 34 -47 37 -100 37 -53 0
-63 -3 -94 -32z m73 -53 c-28 -36 -55 -65 -59 -65 -5 0 -13 9 -19 20 -22 40
42 108 103 109 28 1 28 1 -25 -64z m134 -50 l-4 -25 -43 37 c-54 48 -60 61
-32 73 18 7 27 3 53 -26 23 -25 30 -41 26 -59z"/>
<path d="M840 2032 c0 -16 48 -62 75 -72 34 -13 76 -12 95 1 11 8 7 9 -17 4
-45 -9 -97 10 -128 46 -14 17 -25 26 -25 21z"/>
<path d="M2170 1874 c-20 -13 -62 -29 -94 -35 -53 -10 -77 -8 -129 7 -9 3 24
-35 74 -85 51 -50 93 -91 94 -91 1 0 0 11 -3 25 -2 14 0 25 7 25 6 0 14 18 17
41 4 22 22 63 41 90 18 27 32 49 31 48 -2 0 -19 -11 -38 -25z m-68 -95 c-4
-39 -19 -45 -47 -19 -32 30 -31 38 3 43 40 6 47 2 44 -24z"/>
<path fill="#412492" d="M597 1781 c-12 -33 -31 -41 -94 -41 -49 0 -54 -14 -28 -78 24 -55 53
-82 92 -82 18 0 33 -4 33 -8 0 -13 48 -32 80 -32 44 0 105 65 124 131 24 81
22 89 -19 82 -44 -7 -118 13 -141 38 -24 26 -34 24 -47 -10z m-19 -93 c-4 -37
-1 -59 9 -75 18 -27 6 -29 -23 -5 -14 12 -21 27 -19 45 3 23 -1 27 -23 28
l-27 0 25 12 c14 6 31 20 38 29 21 29 25 21 20 -34z m94 24 c-6 -2 -12 -8 -12
-13 0 -6 5 -7 10 -4 6 3 10 1 10 -4 0 -13 0 -13 -39 0 -42 15 -39 29 6 27 21
-1 32 -3 25 -6z m72 -28 c28 -11 17 -23 -19 -21 -37 2 -46 13 -17 20 9 3 18 5
19 6 1 0 8 -2 17 -5z m-51 -60 c15 -4 27 -10 27 -15 0 -17 -58 -9 -81 12 l-24
21 25 -6 c14 -4 37 -9 53 -12z"/>
<path fill="#ff5432" d="M2304 1778 c-11 -18 -12 -48 -2 -48 12 0 10 -88 -4 -96 -6 -4 -8 -3
-4 4 3 6 -1 15 -10 20 -13 7 -16 19 -12 57 4 29 2 42 -3 34 -5 -8 -9 -42 -9
-76 l0 -62 35 6 c27 4 35 2 35 -10 0 -8 3 -22 6 -30 4 -12 0 -14 -15 -10 -12
3 -21 1 -21 -6 0 -13 56 -15 65 -2 3 5 1 12 -5 16 -5 3 -10 15 -10 26 0 16 7
19 40 19 22 0 40 4 40 9 0 6 -24 7 -55 4 -47 -5 -55 -3 -55 11 0 13 12 16 70
16 70 0 86 -10 56 -34 -8 -6 -17 -26 -21 -43 -6 -32 -5 -33 24 -33 17 0 31 5
31 11 0 6 -9 9 -20 6 -18 -4 -20 -2 -14 16 3 12 12 27 20 33 8 7 15 33 16 65
l1 54 6 -59 c9 -88 31 -86 31 3 0 38 -3 72 -7 74 -5 3 -7 -18 -7 -46 1 -34 0
-40 -3 -17 -2 19 -9 41 -15 48 -6 7 -8 15 -5 19 4 3 2 12 -4 20 -15 17 -164
18 -175 1z m154 -18 c2 -12 -12 -15 -68 -17 -50 -1 -70 2 -70 11 0 23 13 27
74 24 45 -2 62 -7 64 -18z m-101 -60 c1 -13 -4 -16 -18 -13 -24 7 -25 28 -1
30 11 1 18 -6 19 -17z m103 0 c0 -16 -7 -20 -35 -20 -19 0 -35 5 -35 11 0 5
-4 7 -10 4 -6 -3 -7 1 -4 9 4 11 19 16 45 16 32 0 39 -3 39 -20z"/>
<path d="M2652 1609 c-4 -33 -63 -99 -114 -128 -34 -20 -73 -32 -113 -36 l-61
-7 -12 -54 c-11 -46 -11 -57 3 -77 8 -13 13 -30 11 -38 -3 -8 -7 -27 -10 -44
-15 -84 -27 -127 -41 -149 -15 -23 -61 -45 -110 -52 -29 -5 -44 -8 -108 -28
-32 -9 -77 -16 -100 -14 l-41 3 -23 135 c-28 168 -31 182 -43 175 -10 -6 -7
-55 10 -140 5 -27 12 -66 14 -85 5 -43 16 -73 30 -82 7 -4 7 -38 -1 -105 -6
-54 -9 -100 -7 -102 2 -2 10 10 17 28 7 17 16 28 20 24 4 -3 4 21 1 54 l-7 60
59 6 c70 7 227 47 272 71 33 17 72 80 72 115 0 11 6 44 14 74 11 41 12 64 3
100 -15 67 -1 92 54 100 24 3 74 21 110 41 37 19 70 32 73 29 19 -19 -11 -214
-50 -332 -61 -182 -155 -326 -313 -480 -55 -54 -91 -96 -83 -98 17 -6 74 40
164 135 217 227 327 509 316 812 -2 58 -5 98 -6 89z"/>
<path d="M350 1494 c-1 -235 85 -490 230 -682 70 -93 193 -211 274 -262 30
-19 53 -41 51 -47 -3 -8 5 -13 19 -13 13 0 62 -18 109 -40 116 -54 352 -113
333 -82 -3 6 -2 13 4 17 5 3 10 17 10 31 0 19 5 25 18 22 17 -4 19 -40 2 -46
-18 -7 3 -42 26 -42 22 0 24 4 24 49 0 41 4 51 20 56 11 3 24 4 29 1 10 -7 1
-49 -18 -85 -11 -20 -9 -21 22 -21 32 0 36 3 50 45 15 46 15 46 -6 28 -20 -18
-20 -18 -14 15 l7 32 -48 0 c-27 0 -54 -6 -60 -12 -10 -10 -15 -10 -22 2 -13
20 -56 -2 -78 -40 -15 -27 -21 -29 -47 -23 -16 4 -41 7 -55 7 -21 1 -26 7 -31
41 -5 34 -7 37 -14 18 -9 -28 -30 -29 -96 -3 -29 10 -55 17 -60 15 -4 -3 -18
-1 -31 4 -17 7 2 10 72 11 l95 2 -43 20 c-29 13 -47 16 -55 10 -12 -10 -91 -1
-104 11 -3 3 -1 19 5 35 7 21 6 37 -4 61 -8 18 -14 35 -14 37 0 2 25 4 55 4
60 0 58 3 68 -100 2 -19 4 1 5 45 l2 80 -90 0 c-50 1 -90 0 -90 -2 0 -2 13
-24 29 -50 27 -44 28 -49 15 -74 -21 -42 -35 -45 -57 -15 -10 14 -31 33 -46
40 -34 19 -221 198 -221 213 0 6 -4 13 -8 15 -13 4 -82 103 -82 116 0 6 -3 12
-7 14 -8 3 -37 58 -71 138 -30 69 -72 251 -72 314 l0 56 25 -12 c14 -6 25 -14
25 -18 0 -4 10 -11 23 -15 12 -4 29 -9 37 -12 8 -3 63 -6 123 -7 l107 -1 0
-35 c0 -19 4 -60 9 -90 5 -30 10 -77 10 -103 1 -71 33 -100 131 -116 41 -6
112 -24 158 -39 l84 -27 -5 -80 c-2 -44 -2 -70 2 -57 9 35 24 31 36 -10 12
-42 29 -65 21 -28 -38 175 -39 183 -26 204 7 12 15 30 16 41 1 11 7 45 13 75
6 30 12 76 14 101 3 43 41 109 63 109 3 0 73 -67 154 -148 l149 -148 -61 -63
c-46 -49 -62 -60 -69 -50 -6 10 -9 6 -9 -13 0 -16 2 -28 4 -28 2 0 36 33 75
73 l71 72 44 -49 c25 -27 43 -53 40 -57 -2 -4 5 -5 15 -2 17 4 11 13 -37 58
l-57 54 145 145 c80 80 140 146 135 146 -6 0 -73 -63 -150 -140 l-140 -140
-73 73 c-40 39 -92 93 -114 119 l-40 48 68 -42 c38 -22 75 -42 84 -43 8 -1 23
-5 33 -9 9 -5 27 -6 40 -3 12 4 25 6 30 6 19 1 152 75 174 97 38 38 20 40 -33
3 -27 -18 -79 -46 -117 -61 l-69 -28 -66 27 c-73 28 -105 46 -139 76 -12 10
-26 16 -32 13 -5 -4 -13 -1 -17 5 -5 8 -3 9 6 4 9 -5 11 -4 6 4 -4 6 -12 9
-17 5 -5 -3 -16 -1 -23 5 -10 8 -17 7 -27 -5 -12 -15 -14 -14 -20 3 -5 14 -11
9 -27 -27 -13 -29 -59 -83 -130 -154 -94 -93 -112 -107 -128 -98 -11 6 -51 44
-90 84 -63 64 -72 78 -77 118 -2 25 -8 54 -11 65 -5 15 3 33 28 65 20 25 36
53 36 62 0 14 -10 12 -60 -15 -76 -38 -164 -42 -232 -9 l-43 21 30 -24 c41
-34 19 -31 -36 3 -53 35 -73 56 -99 108 l-19 39 -1 -91z m796 -345 c-9 -51
-16 -103 -16 -116 0 -28 -2 -28 -68 -3 -29 11 -61 20 -72 20 -11 0 -20 3 -20
7 0 10 183 193 188 188 2 -2 -3 -45 -12 -96z m-258 -74 c-1 -2 -25 2 -52 9
-57 15 -76 36 -76 87 l0 37 66 -65 c36 -35 64 -66 62 -68z"/>
<path d="M1225 1390 c-18 -19 -15 -22 20 -22 32 0 35 2 23 22 -7 11 -16 20
-19 20 -3 0 -14 -9 -24 -20z"/>
<path d="M2007 1205 c56 -60 117 -124 137 -142 l36 -31 77 80 c104 106 107
124 3 22 l-82 -81 -71 71 c-40 39 -101 98 -136 131 -50 46 -41 34 36 -50z"/>
<path d="M1680 913 c0 -4 24 -29 53 -56 95 -89 103 -93 32 -16 -66 72 -85 88
-85 72z"/>
<path d="M1340 835 c-30 -30 -52 -57 -49 -60 3 -2 29 20 59 50 30 30 52 57 49
60 -3 2 -29 -20 -59 -50z"/>
<path d="M1100 653 c0 -83 3 -103 14 -103 19 0 30 17 15 22 -15 5 -23 86 -12
128 9 34 21 40 64 31 4 0 12 -28 19 -61 7 -33 19 -65 26 -71 20 -16 8 -29 -27
-29 -17 0 -28 -4 -24 -9 3 -6 163 -10 388 -10 337 -1 380 1 362 14 -11 8 -25
18 -31 23 -6 6 -17 6 -26 1 -9 -5 -121 -8 -249 -6 -129 1 -243 -2 -254 -6 -20
-9 -20 -8 -1 7 11 9 30 16 44 16 15 0 21 4 16 12 -5 8 4 9 32 5 21 -4 34 -3
28 1 -39 25 -35 102 5 102 22 0 37 -17 26 -28 -4 -4 -10 -1 -12 6 -10 26 -24
10 -21 -25 4 -46 23 -53 37 -13 9 27 13 30 31 20 16 -8 20 -8 20 3 0 26 43 14
51 -13 6 -22 7 -23 8 -4 1 24 28 51 39 39 4 -4 1 -10 -5 -12 -15 -5 -17 -39
-3 -48 5 -3 13 9 18 26 11 46 37 53 27 8 -7 -30 -6 -32 9 -20 9 7 16 22 16 32
0 12 7 19 20 19 16 0 19 -5 14 -30 -4 -19 -2 -30 5 -30 6 0 11 -4 11 -10 0 -5
-7 -10 -15 -10 -10 0 -15 12 -17 38 l-1 37 -4 -33 c-4 -29 -8 -33 -31 -32 -15
1 -29 1 -32 0 -3 -1 -20 -3 -37 -5 -29 -2 -33 0 -33 21 0 13 -4 24 -10 24 -5
0 -10 -11 -10 -25 0 -14 -4 -25 -10 -25 -5 0 -10 7 -10 15 0 8 -4 15 -10 15
-5 0 -10 -7 -10 -15 0 -8 -9 -15 -19 -15 -11 0 -22 -4 -25 -9 -11 -18 275 -33
321 -17 12 4 25 16 28 27 5 13 12 18 22 15 13 -6 15 0 10 38 l-6 44 39 6 c57
9 70 1 70 -47 0 -55 7 -44 11 18 l4 50 -452 0 -453 0 0 -102z m723 69 c-19 -3
-23 -10 -23 -37 0 -18 6 -35 13 -38 6 -2 9 -8 5 -12 -14 -15 -36 16 -40 55 -4
43 3 49 42 41 24 -5 24 -6 3 -9z m-548 -12 c17 -7 17 -9 3 -9 -14 -1 -18 -10
-17 -43 0 -43 6 -39 23 15 10 32 28 19 21 -15 -6 -31 -5 -32 10 -14 8 11 15
26 15 33 0 18 10 16 27 -4 14 -17 14 -17 10 3 -7 34 5 45 38 35 25 -8 26 -9 8
-10 -20 -1 -23 -6 -23 -38 1 -36 2 -37 15 -19 15 20 20 10 9 -18 -8 -21 -34
-20 -34 1 0 16 -1 16 -12 0 -10 -12 -21 -14 -48 -8 -26 5 -38 3 -47 -8 -18
-24 -35 0 -35 49 1 37 -1 40 -21 35 -21 -6 -22 -6 -3 9 22 18 32 19 61 6z
m586 -18 c14 -6 13 -10 -7 -31 -20 -22 -24 -23 -30 -8 -7 19 1 47 13 46 4 0
15 -3 24 -7z"/>
<path d="M2109 692 l-86 -3 5 -26 c5 -26 5 -26 13 -5 7 19 16 22 62 22 30 0
56 -3 60 -6 3 -4 0 -22 -8 -41 -8 -20 -15 -51 -15 -69 0 -33 -1 -34 -42 -36
-24 0 -51 0 -61 0 -10 1 -35 -7 -55 -18 l-37 -19 30 -1 30 -2 -34 -10 c-47
-13 -65 6 -32 33 l23 19 -26 0 c-24 0 -26 -3 -26 -41 0 -35 -2 -40 -15 -29
-18 15 -52 4 -65 -20 -7 -13 -20 -19 -40 -17 -26 2 -30 6 -30 32 l0 30 18 -23
c17 -22 18 -22 19 -3 2 29 -23 47 -42 31 -17 -14 -20 -56 -5 -65 6 -3 7 -17 4
-29 -6 -23 -5 -23 43 -11 79 21 139 43 203 75 50 25 71 30 134 30 l75 0 -29
51 -30 51 26 49 c15 27 25 50 23 52 -2 1 -43 1 -90 -1z"/>
<path d="M1160 515 c32 -18 40 -18 40 0 0 10 -10 15 -32 15 l-33 -1 25 -14z"/>
<path d="M1296 496 c-4 -16 -2 -34 3 -39 12 -12 43 35 36 55 -10 25 -33 16
-39 -16z"/>
<path d="M1671 448 c-5 -13 -11 -32 -13 -43 -2 -11 -10 -19 -16 -17 -14 2 -15
-8 -3 -27 5 -8 11 -9 15 -3 3 5 17 7 31 4 18 -3 25 0 25 12 0 9 5 16 11 16 8
0 8 4 1 13 -5 6 -12 23 -14 36 -4 33 -26 38 -37 9z"/>
<path d="M1580 386 c-13 -36 -14 -36 16 -36 22 0 24 3 19 23 -12 37 -24 42
-35 13z"/>
</g>
</svg>
