<svg xmlns="http://www.w3.org/2000/svg" width="500" height="500" viewBox="0 0 500 500" version="1.1"><path d="M 187 145.028 C 160.325 148.776, 117.631 154.688, 92.125 158.165 C 66.393 161.674, 45.570 164.958, 45.345 165.543 C 44.811 166.934, 71.521 360.855, 72.362 361.696 C 72.719 362.052, 83.246 360.936, 95.755 359.216 C 108.265 357.495, 151.575 351.562, 192 346.032 C 232.425 340.502, 266.419 335.772, 267.542 335.522 C 269.539 335.076, 269.287 332.909, 256.042 236.534 L 242.500 138.001 239 138.107 C 237.075 138.166, 213.675 141.280, 187 145.028 M 204.184 235.069 C 195.769 236.725, 187.016 244.517, 184.947 252.193 C 183.498 257.567, 184.401 265.906, 186.979 270.958 C 191.179 279.191, 197.314 283.182, 212.569 287.604 C 226.540 291.654, 229.907 293.921, 229.968 299.316 C 230.016 303.559, 228.280 305.969, 223.669 308.063 C 216.521 311.308, 209.251 310.029, 203.059 304.435 L 199.260 301.003 192.630 306.121 C 188.984 308.936, 186 311.567, 186 311.966 C 186 313.800, 193.469 320.084, 198.706 322.655 C 204.007 325.258, 205.435 325.500, 215.500 325.500 C 225.253 325.500, 227.123 325.206, 232 322.910 C 243.616 317.439, 248.402 310.778, 248.462 300 C 248.509 291.529, 246.014 285.149, 240.817 280.453 C 236.026 276.125, 230.167 273.414, 216.429 269.166 C 210.890 267.454, 205.666 265.254, 204.820 264.276 C 196.695 254.891, 211.045 244.921, 220.139 253.633 C 222.937 256.313, 222.989 256.322, 225.233 254.453 C 230.210 250.309, 235 245.548, 235 244.746 C 235 244.280, 233.313 242.338, 231.250 240.432 C 225.118 234.764, 215.457 232.850, 204.184 235.069 M 158.500 242.153 C 155.200 242.654, 141.038 244.649, 127.029 246.587 C 113.019 248.524, 101.424 250.243, 101.261 250.406 C 100.861 250.806, 102.936 265.269, 103.470 265.803 C 103.703 266.036, 109.341 265.450, 116 264.500 C 122.659 263.550, 128.287 262.954, 128.508 263.175 C 128.729 263.396, 131.142 279.684, 133.871 299.371 C 136.600 319.058, 139.020 335.353, 139.249 335.582 C 139.636 335.969, 156.130 333.973, 156.804 333.458 C 157.068 333.256, 148.889 271.767, 147.485 263.395 L 146.964 260.290 160.052 258.493 C 172.428 256.793, 173.113 256.581, 172.644 254.598 C 172.371 253.444, 171.838 249.912, 171.459 246.750 C 170.780 241.085, 170.723 241.002, 167.635 241.121 C 165.911 241.187, 161.800 241.652, 158.500 242.153 M 335.578 242.153 C 335.340 242.894, 333.495 257.900, 331.479 275.500 C 328.848 298.479, 327.332 308.344, 326.104 310.495 C 322.278 317.194, 312.913 316.120, 308.428 308.467 C 306.988 306.010, 305.691 304, 305.546 304 C 303.762 304, 290 311.400, 290 312.359 C 290 313.074, 291.703 316.098, 293.784 319.079 C 303.500 332.997, 327.075 336.278, 338.407 325.289 C 345.088 318.810, 345.813 315.976, 350.091 279.642 C 352.237 261.414, 353.994 245.748, 353.996 244.829 C 354 243.006, 352.212 242.492, 342.256 241.455 C 337.461 240.956, 335.911 241.118, 335.578 242.153 M 385.803 247.399 C 374.967 250.317, 368.252 258.134, 367.269 268.976 C 366.072 282.168, 371.298 289.706, 389.446 300.967 C 401.354 308.355, 403.886 311.336, 402.601 316.453 C 401.430 321.119, 398.243 323, 391.507 323 C 386.515 323, 384.575 322.482, 380.946 320.178 C 378.501 318.627, 375.610 315.702, 374.523 313.678 C 373.435 311.655, 372.254 310, 371.897 310 C 371.541 310, 367.835 311.556, 363.662 313.458 L 356.075 316.916 357.217 320.208 C 359.083 325.586, 368.615 334.328, 375.507 336.983 C 382.593 339.713, 396.391 340.786, 402.657 339.095 C 416.730 335.297, 424.523 321.687, 421.010 307.042 C 419.271 299.794, 411.870 292.022, 400.160 285.149 C 388.721 278.435, 386 275.776, 386 271.318 C 386 267.125, 389.746 263, 393.553 263 C 397.544 263, 402.822 265.890, 404.731 269.121 C 405.666 270.704, 406.795 272, 407.241 272 C 408.798 272, 422 264.967, 422 264.137 C 422 262.318, 415.770 254.846, 411.939 252.071 C 409.542 250.334, 405.070 248.494, 400.995 247.567 C 392.940 245.735, 392.024 245.725, 385.803 247.399" stroke="none" fill="#056cb0" fill-rule="evenodd"/><path d="M 256.938 139.156 C 256.904 139.345, 255.367 151.755, 253.523 166.733 L 250.170 193.966 259.878 264.483 C 265.218 303.267, 269.567 335.038, 269.543 335.085 C 269.520 335.131, 264.100 335.953, 257.500 336.911 C 248.359 338.238, 246.215 338.814, 248.500 339.327 C 255.492 340.898, 431.416 360.976, 432.030 360.272 C 432.402 359.848, 437.734 316.075, 443.881 263 C 450.027 209.925, 455.266 165.529, 455.523 164.343 C 455.938 162.430, 455.455 162.117, 451.246 161.576 C 448.636 161.241, 406 156.256, 356.500 150.499 C 307 144.741, 264.363 139.757, 261.750 139.422 C 259.137 139.087, 256.972 138.967, 256.938 139.156 M 335.578 242.153 C 335.340 242.894, 333.495 257.900, 331.479 275.500 C 328.848 298.479, 327.332 308.344, 326.104 310.495 C 322.278 317.194, 312.913 316.120, 308.428 308.467 C 306.988 306.010, 305.691 304, 305.546 304 C 303.762 304, 290 311.400, 290 312.359 C 290 313.074, 291.703 316.098, 293.784 319.079 C 303.500 332.997, 327.075 336.278, 338.407 325.289 C 345.088 318.810, 345.813 315.976, 350.091 279.642 C 352.237 261.414, 353.994 245.748, 353.996 244.829 C 354 243.006, 352.212 242.492, 342.256 241.455 C 337.461 240.956, 335.911 241.118, 335.578 242.153 M 385.803 247.399 C 374.967 250.317, 368.252 258.134, 367.269 268.976 C 366.072 282.168, 371.298 289.706, 389.446 300.967 C 401.354 308.355, 403.886 311.336, 402.601 316.453 C 401.430 321.119, 398.243 323, 391.507 323 C 386.515 323, 384.575 322.482, 380.946 320.178 C 378.501 318.627, 375.610 315.702, 374.523 313.678 C 373.435 311.655, 372.254 310, 371.897 310 C 371.541 310, 367.835 311.556, 363.662 313.458 L 356.075 316.916 357.217 320.208 C 359.083 325.586, 368.615 334.328, 375.507 336.983 C 382.593 339.713, 396.391 340.786, 402.657 339.095 C 416.730 335.297, 424.523 321.687, 421.010 307.042 C 419.271 299.794, 411.870 292.022, 400.160 285.149 C 388.721 278.435, 386 275.776, 386 271.318 C 386 267.125, 389.746 263, 393.553 263 C 397.544 263, 402.822 265.890, 404.731 269.121 C 405.666 270.704, 406.795 272, 407.241 272 C 408.798 272, 422 264.967, 422 264.137 C 422 262.318, 415.770 254.846, 411.939 252.071 C 409.542 250.334, 405.070 248.494, 400.995 247.567 C 392.940 245.735, 392.024 245.725, 385.803 247.399 M 248.272 300 C 248.272 302.475, 248.467 303.488, 248.706 302.250 C 248.944 301.012, 248.944 298.988, 248.706 297.750 C 248.467 296.512, 248.272 297.525, 248.272 300" stroke="none" fill="#f3db1c" fill-rule="evenodd"/></svg>